<svg id="visual" viewBox="0 0 1200 300" width="1200" height="300" xmlns="http://www.w3.org/2000/svg" xmlns:xlink="http://www.w3.org/1999/xlink" version="1.1"><rect x="0" y="0" width="1200" height="300" fill="#001220"></rect><defs><linearGradient id="grad1_0" x1="75%" y1="0%" x2="100%" y2="100%"><stop offset="-30%" stop-color="#fbae3c" stop-opacity="1"></stop><stop offset="130%" stop-color="#fbae3c" stop-opacity="1"></stop></linearGradient></defs><defs><linearGradient id="grad1_1" x1="75%" y1="0%" x2="100%" y2="100%"><stop offset="-30%" stop-color="#fbae3c" stop-opacity="1"></stop><stop offset="130%" stop-color="#f48350" stop-opacity="1"></stop></linearGradient></defs><defs><linearGradient id="grad1_2" x1="75%" y1="0%" x2="100%" y2="100%"><stop offset="-30%" stop-color="#d96162" stop-opacity="1"></stop><stop offset="130%" stop-color="#f48350" stop-opacity="1"></stop></linearGradient></defs><defs><linearGradient id="grad1_3" x1="75%" y1="0%" x2="100%" y2="100%"><stop offset="-30%" stop-color="#d96162" stop-opacity="1"></stop><stop offset="130%" stop-color="#af4b6d" stop-opacity="1"></stop></linearGradient></defs><defs><linearGradient id="grad1_4" x1="75%" y1="0%" x2="100%" y2="100%"><stop offset="-30%" stop-color="#7c3e6b" stop-opacity="1"></stop><stop offset="130%" stop-color="#af4b6d" stop-opacity="1"></stop></linearGradient></defs><defs><linearGradient id="grad1_5" x1="75%" y1="0%" x2="100%" y2="100%"><stop offset="-30%" stop-color="#7c3e6b" stop-opacity="1"></stop><stop offset="130%" stop-color="#49335c" stop-opacity="1"></stop></linearGradient></defs><defs><linearGradient id="grad1_6" x1="75%" y1="0%" x2="100%" y2="100%"><stop offset="-30%" stop-color="#1d2540" stop-opacity="1"></stop><stop offset="130%" stop-color="#49335c" stop-opacity="1"></stop></linearGradient></defs><defs><linearGradient id="grad1_7" x1="75%" y1="0%" x2="100%" y2="100%"><stop offset="-30%" stop-color="#1d2540" stop-opacity="1"></stop><stop offset="130%" stop-color="#001220" stop-opacity="1"></stop></linearGradient></defs><defs><linearGradient id="grad2_0" x1="0%" y1="0%" x2="25%" y2="100%"><stop offset="-30%" stop-color="#fbae3c" stop-opacity="1"></stop><stop offset="130%" stop-color="#fbae3c" stop-opacity="1"></stop></linearGradient></defs><defs><linearGradient id="grad2_1" x1="0%" y1="0%" x2="25%" y2="100%"><stop offset="-30%" stop-color="#f48350" stop-opacity="1"></stop><stop offset="130%" stop-color="#fbae3c" stop-opacity="1"></stop></linearGradient></defs><defs><linearGradient id="grad2_2" x1="0%" y1="0%" x2="25%" y2="100%"><stop offset="-30%" stop-color="#f48350" stop-opacity="1"></stop><stop offset="130%" stop-color="#d96162" stop-opacity="1"></stop></linearGradient></defs><defs><linearGradient id="grad2_3" x1="0%" y1="0%" x2="25%" y2="100%"><stop offset="-30%" stop-color="#af4b6d" stop-opacity="1"></stop><stop offset="130%" stop-color="#d96162" stop-opacity="1"></stop></linearGradient></defs><defs><linearGradient id="grad2_4" x1="0%" y1="0%" x2="25%" y2="100%"><stop offset="-30%" stop-color="#af4b6d" stop-opacity="1"></stop><stop offset="130%" stop-color="#7c3e6b" stop-opacity="1"></stop></linearGradient></defs><defs><linearGradient id="grad2_5" x1="0%" y1="0%" x2="25%" y2="100%"><stop offset="-30%" stop-color="#49335c" stop-opacity="1"></stop><stop offset="130%" stop-color="#7c3e6b" stop-opacity="1"></stop></linearGradient></defs><defs><linearGradient id="grad2_6" x1="0%" y1="0%" x2="25%" y2="100%"><stop offset="-30%" stop-color="#49335c" stop-opacity="1"></stop><stop offset="130%" stop-color="#1d2540" stop-opacity="1"></stop></linearGradient></defs><defs><linearGradient id="grad2_7" x1="0%" y1="0%" x2="25%" y2="100%"><stop offset="-30%" stop-color="#001220" stop-opacity="1"></stop><stop offset="130%" stop-color="#1d2540" stop-opacity="1"></stop></linearGradient></defs><g transform="translate(1200, 0)"><path d="M0 300C-53.6 292.8 -107.3 285.7 -150 259.8C-192.7 234 -224.5 189.4 -247.7 143C-270.9 96.6 -285.4 48.3 -300 0L0 0Z" fill="#0c1c30"></path><path d="M0 262.5C-46.9 256.2 -93.9 250 -131.2 227.3C-168.6 204.7 -196.4 165.7 -216.7 125.1C-237 84.5 -249.8 42.3 -262.5 0L0 0Z" fill="#312c4f"></path><path d="M0 225C-40.2 219.6 -80.5 214.2 -112.5 194.9C-144.5 175.5 -168.4 142.1 -185.8 107.3C-203.1 72.4 -214.1 36.2 -225 0L0 0Z" fill="#623965"></path><path d="M0 187.5C-33.5 183 -67.1 178.5 -93.7 162.4C-120.4 146.2 -140.3 118.4 -154.8 89.4C-169.3 60.4 -178.4 30.2 -187.5 0L0 0Z" fill="#96446e"></path><path d="M0 150C-26.8 146.4 -53.6 142.8 -75 129.9C-96.4 117 -112.3 94.7 -123.8 71.5C-135.4 48.3 -142.7 24.1 -150 0L0 0Z" fill="#c55469"></path><path d="M0 112.5C-20.1 109.8 -40.2 107.1 -56.2 97.4C-72.3 87.7 -84.2 71 -92.9 53.6C-101.6 36.2 -107 18.1 -112.5 0L0 0Z" fill="#e9705a"></path><path d="M0 75C-13.4 73.2 -26.8 71.4 -37.5 65C-48.2 58.5 -56.1 47.4 -61.9 35.8C-67.7 24.1 -71.4 12.1 -75 0L0 0Z" fill="#fa9845"></path><path d="M0 37.5C-6.7 36.6 -13.4 35.7 -18.7 32.5C-24.1 29.2 -28.1 23.7 -31 17.9C-33.9 12.1 -35.7 6 -37.5 0L0 0Z" fill="#fbae3c"></path></g><g transform="translate(0, 300)"><path d="M0 -300C55.3 -293.8 110.5 -287.5 150 -259.8C189.5 -232.1 213.2 -182.9 235.6 -136C257.9 -89.1 279 -44.6 300 0L0 0Z" fill="#0c1c30"></path><path d="M0 -262.5C48.4 -257 96.7 -251.6 131.2 -227.3C165.8 -203.1 186.5 -160 206.1 -119C225.7 -78 244.1 -39 262.5 0L0 0Z" fill="#312c4f"></path><path d="M0 -225C41.4 -220.3 82.9 -215.6 112.5 -194.9C142.1 -174.1 159.9 -137.2 176.7 -102C193.4 -66.8 209.2 -33.4 225 0L0 0Z" fill="#623965"></path><path d="M0 -187.5C34.5 -183.6 69.1 -179.7 93.7 -162.4C118.4 -145.1 133.2 -114.3 147.2 -85C161.2 -55.7 174.4 -27.8 187.5 0L0 0Z" fill="#96446e"></path><path d="M0 -150C27.6 -146.9 55.3 -143.8 75 -129.9C94.7 -116 106.6 -91.4 117.8 -68C129 -44.6 139.5 -22.3 150 0L0 0Z" fill="#c55469"></path><path d="M0 -112.5C20.7 -110.2 41.4 -107.8 56.2 -97.4C71.1 -87 79.9 -68.6 88.3 -51C96.7 -33.4 104.6 -16.7 112.5 0L0 0Z" fill="#e9705a"></path><path d="M0 -75C13.8 -73.4 27.6 -71.9 37.5 -65C47.4 -58 53.3 -45.7 58.9 -34C64.5 -22.3 69.7 -11.1 75 0L0 0Z" fill="#fa9845"></path><path d="M0 -37.5C6.9 -36.7 13.8 -35.9 18.7 -32.5C23.7 -29 26.6 -22.9 29.4 -17C32.2 -11.1 34.9 -5.6 37.5 0L0 0Z" fill="#fbae3c"></path></g></svg>