<svg id="visual" viewBox="0 0 1200 120" width="1200" height="120" xmlns="http://www.w3.org/2000/svg" xmlns:xlink="http://www.w3.org/1999/xlink" version="1.1"><rect x="0" y="0" width="1200" height="120" fill="#001220"></rect><defs><linearGradient id="grad1_0" x1="90%" y1="0%" x2="100%" y2="100%"><stop offset="-150%" stop-color="#fbae3c" stop-opacity="1"></stop><stop offset="250%" stop-color="#fbae3c" stop-opacity="1"></stop></linearGradient></defs><defs><linearGradient id="grad1_1" x1="90%" y1="0%" x2="100%" y2="100%"><stop offset="-150%" stop-color="#fbae3c" stop-opacity="1"></stop><stop offset="250%" stop-color="#f48350" stop-opacity="1"></stop></linearGradient></defs><defs><linearGradient id="grad1_2" x1="90%" y1="0%" x2="100%" y2="100%"><stop offset="-150%" stop-color="#d96162" stop-opacity="1"></stop><stop offset="250%" stop-color="#f48350" stop-opacity="1"></stop></linearGradient></defs><defs><linearGradient id="grad1_3" x1="90%" y1="0%" x2="100%" y2="100%"><stop offset="-150%" stop-color="#d96162" stop-opacity="1"></stop><stop offset="250%" stop-color="#af4b6d" stop-opacity="1"></stop></linearGradient></defs><defs><linearGradient id="grad1_4" x1="90%" y1="0%" x2="100%" y2="100%"><stop offset="-150%" stop-color="#7c3e6b" stop-opacity="1"></stop><stop offset="250%" stop-color="#af4b6d" stop-opacity="1"></stop></linearGradient></defs><defs><linearGradient id="grad1_5" x1="90%" y1="0%" x2="100%" y2="100%"><stop offset="-150%" stop-color="#7c3e6b" stop-opacity="1"></stop><stop offset="250%" stop-color="#49335c" stop-opacity="1"></stop></linearGradient></defs><defs><linearGradient id="grad1_6" x1="90%" y1="0%" x2="100%" y2="100%"><stop offset="-150%" stop-color="#1d2540" stop-opacity="1"></stop><stop offset="250%" stop-color="#49335c" stop-opacity="1"></stop></linearGradient></defs><defs><linearGradient id="grad1_7" x1="90%" y1="0%" x2="100%" y2="100%"><stop offset="-150%" stop-color="#1d2540" stop-opacity="1"></stop><stop offset="250%" stop-color="#001220" stop-opacity="1"></stop></linearGradient></defs><defs><linearGradient id="grad2_0" x1="0%" y1="0%" x2="10%" y2="100%"><stop offset="-150%" stop-color="#fbae3c" stop-opacity="1"></stop><stop offset="250%" stop-color="#fbae3c" stop-opacity="1"></stop></linearGradient></defs><defs><linearGradient id="grad2_1" x1="0%" y1="0%" x2="10%" y2="100%"><stop offset="-150%" stop-color="#f48350" stop-opacity="1"></stop><stop offset="250%" stop-color="#fbae3c" stop-opacity="1"></stop></linearGradient></defs><defs><linearGradient id="grad2_2" x1="0%" y1="0%" x2="10%" y2="100%"><stop offset="-150%" stop-color="#f48350" stop-opacity="1"></stop><stop offset="250%" stop-color="#d96162" stop-opacity="1"></stop></linearGradient></defs><defs><linearGradient id="grad2_3" x1="0%" y1="0%" x2="10%" y2="100%"><stop offset="-150%" stop-color="#af4b6d" stop-opacity="1"></stop><stop offset="250%" stop-color="#d96162" stop-opacity="1"></stop></linearGradient></defs><defs><linearGradient id="grad2_4" x1="0%" y1="0%" x2="10%" y2="100%"><stop offset="-150%" stop-color="#af4b6d" stop-opacity="1"></stop><stop offset="250%" stop-color="#7c3e6b" stop-opacity="1"></stop></linearGradient></defs><defs><linearGradient id="grad2_5" x1="0%" y1="0%" x2="10%" y2="100%"><stop offset="-150%" stop-color="#49335c" stop-opacity="1"></stop><stop offset="250%" stop-color="#7c3e6b" stop-opacity="1"></stop></linearGradient></defs><defs><linearGradient id="grad2_6" x1="0%" y1="0%" x2="10%" y2="100%"><stop offset="-150%" stop-color="#49335c" stop-opacity="1"></stop><stop offset="250%" stop-color="#1d2540" stop-opacity="1"></stop></linearGradient></defs><defs><linearGradient id="grad2_7" x1="0%" y1="0%" x2="10%" y2="100%"><stop offset="-150%" stop-color="#001220" stop-opacity="1"></stop><stop offset="250%" stop-color="#1d2540" stop-opacity="1"></stop></linearGradient></defs><g transform="translate(1200, 0)"><path d="M0 120C-25.5 119.5 -51.1 119 -60 103.9C-68.9 88.9 -61.2 59.2 -68.4 39.5C-75.6 19.8 -97.8 9.9 -120 0L0 0Z" fill="#0c1c30"></path><path d="M0 105C-22.4 104.6 -44.7 104.1 -52.5 90.9C-60.3 77.8 -53.5 51.8 -59.9 34.6C-66.2 17.3 -85.6 8.6 -105 0L0 0Z" fill="#312c4f"></path><path d="M0 90C-19.2 89.6 -38.3 89.2 -45 77.9C-51.7 66.6 -45.9 44.4 -51.3 29.6C-56.7 14.8 -73.4 7.4 -90 0L0 0Z" fill="#623965"></path><path d="M0 75C-16 74.7 -31.9 74.4 -37.5 65C-43.1 55.5 -38.2 37 -42.8 24.7C-47.3 12.3 -61.1 6.2 -75 0L0 0Z" fill="#96446e"></path><path d="M0 60C-12.8 59.7 -25.5 59.5 -30 52C-34.5 44.4 -30.6 29.6 -34.2 19.8C-37.8 9.9 -48.9 4.9 -60 0L0 0Z" fill="#c55469"></path><path d="M0 45C-9.6 44.8 -19.2 44.6 -22.5 39C-25.8 33.3 -22.9 22.2 -25.7 14.8C-28.4 7.4 -36.7 3.7 -45 0L0 0Z" fill="#e9705a"></path><path d="M0 30C-6.4 29.9 -12.8 29.7 -15 26C-17.2 22.2 -15.3 14.8 -17.1 9.9C-18.9 4.9 -24.5 2.5 -30 0L0 0Z" fill="#fa9845"></path><path d="M0 15C-3.2 14.9 -6.4 14.9 -7.5 13C-8.6 11.1 -7.6 7.4 -8.6 4.9C-9.5 2.5 -12.2 1.2 -15 0L0 0Z" fill="#fbae3c"></path></g><g transform="translate(0, 120)"><path d="M0 -120C25.2 -119.3 50.4 -118.6 60 -103.9C69.6 -89.3 63.6 -60.6 71 -41C78.4 -21.4 99.2 -10.7 120 0L0 0Z" fill="#0c1c30"></path><path d="M0 -105C22 -104.4 44.1 -103.8 52.5 -90.9C60.9 -78.1 55.7 -53.1 62.1 -35.9C68.6 -18.7 86.8 -9.3 105 0L0 0Z" fill="#312c4f"></path><path d="M0 -90C18.9 -89.5 37.8 -88.9 45 -77.9C52.2 -66.9 47.7 -45.5 53.3 -30.8C58.8 -16 74.4 -8 90 0L0 0Z" fill="#623965"></path><path d="M0 -75C15.7 -74.6 31.5 -74.1 37.5 -65C43.5 -55.8 39.8 -37.9 44.4 -25.6C49 -13.3 62 -6.7 75 0L0 0Z" fill="#96446e"></path><path d="M0 -60C12.6 -59.6 25.2 -59.3 30 -52C34.8 -44.6 31.8 -30.3 35.5 -20.5C39.2 -10.7 49.6 -5.3 60 0L0 0Z" fill="#c55469"></path><path d="M0 -45C9.4 -44.7 18.9 -44.5 22.5 -39C26.1 -33.5 23.9 -22.7 26.6 -15.4C29.4 -8 37.2 -4 45 0L0 0Z" fill="#e9705a"></path><path d="M0 -30C6.3 -29.8 12.6 -29.6 15 -26C17.4 -22.3 15.9 -15.2 17.8 -10.3C19.6 -5.3 24.8 -2.7 30 0L0 0Z" fill="#fa9845"></path><path d="M0 -15C3.1 -14.9 6.3 -14.8 7.5 -13C8.7 -11.2 8 -7.6 8.9 -5.1C9.8 -2.7 12.4 -1.3 15 0L0 0Z" fill="#fbae3c"></path></g></svg>